<?xml version="1.0" encoding="UTF-8" standalone="no"?>
<!DOCTYPE svg PUBLIC "-//W3C//DTD SVG 1.1//EN"
 "http://www.w3.org/Graphics/SVG/1.1/DTD/svg11.dtd">
<!-- Generated by graphviz version 2.43.0 (0)
 -->
<!-- Title: uout/so_target_bits.h Pages: 1 -->
<svg width="179pt" height="252pt"
 viewBox="0.00 0.00 179.00 252.00" xmlns="http://www.w3.org/2000/svg" xmlns:xlink="http://www.w3.org/1999/xlink">
<g id="graph0" class="graph" transform="scale(1 1) rotate(0) translate(4 248)">
<title>uout/so_target_bits.h</title>
<!-- Node1 -->
<g id="node1" class="node">
<title>Node1</title>
<g id="a_node1"><a xlink:title="flags to select output formats and targets">
<polygon fill="#bfbfbf" stroke="black" points="52,-224.5 52,-243.5 171,-243.5 171,-224.5 52,-224.5"/>
<text text-anchor="middle" x="111.5" y="-231.5" font-family="Helvetica,sans-Serif" font-size="10.00">uout/so_target_bits.h</text>
</a>
</g>
</g>
<!-- Node2 -->
<g id="node2" class="node">
<title>Node2</title>
<g id="a_node2"><a xlink:href="so__out_8h.html" target="_top" xlink:title="write formatted output to UoutWriter">
<polygon fill="none" stroke="black" points="0,-168.5 0,-187.5 83,-187.5 83,-168.5 0,-168.5"/>
<text text-anchor="middle" x="41.5" y="-175.5" font-family="Helvetica,sans-Serif" font-size="10.00">uout/so_out.h</text>
</a>
</g>
</g>
<!-- Node1&#45;&gt;Node2 -->
<g id="edge1" class="edge">
<title>Node1&#45;&gt;Node2</title>
<path fill="none" stroke="midnightblue" d="M92.19,-218.1C79.59,-208.38 63.57,-196.03 52.95,-187.83"/>
<polygon fill="midnightblue" stroke="midnightblue" points="90.2,-220.99 100.25,-224.32 94.47,-215.44 90.2,-220.99"/>
</g>
<!-- Node3 -->
<g id="node3" class="node">
<title>Node3</title>
<g id="a_node3"><a xlink:href="uo__types_8h.html" target="_top" xlink:title="API parameter and return types.">
<polygon fill="none" stroke="black" points="41,-56.5 41,-75.5 136,-75.5 136,-56.5 41,-56.5"/>
<text text-anchor="middle" x="88.5" y="-63.5" font-family="Helvetica,sans-Serif" font-size="10.00">uout/uo_types.h</text>
</a>
</g>
</g>
<!-- Node1&#45;&gt;Node3 -->
<g id="edge6" class="edge">
<title>Node1&#45;&gt;Node3</title>
<path fill="none" stroke="midnightblue" d="M125.59,-216.36C144.04,-192.43 171.99,-147.28 153.5,-112 144.45,-94.74 125.44,-82.78 110.31,-75.55"/>
<polygon fill="midnightblue" stroke="midnightblue" points="122.64,-214.44 119.1,-224.43 128.1,-218.83 122.64,-214.44"/>
</g>
<!-- Node5 -->
<g id="node5" class="node">
<title>Node5</title>
<g id="a_node5"><a xlink:href="uout__writer_8hh.html" target="_top" xlink:title="Provide an output class hierarchy which knows about the required format (text or JSON) and write func...">
<polygon fill="none" stroke="black" points="33,-112.5 33,-131.5 144,-131.5 144,-112.5 33,-112.5"/>
<text text-anchor="middle" x="88.5" y="-119.5" font-family="Helvetica,sans-Serif" font-size="10.00">uout/uout_writer.hh</text>
</a>
</g>
</g>
<!-- Node1&#45;&gt;Node5 -->
<g id="edge7" class="edge">
<title>Node1&#45;&gt;Node5</title>
<path fill="none" stroke="midnightblue" d="M107.6,-214.35C102.56,-190.25 94,-149.31 90.3,-131.59"/>
<polygon fill="midnightblue" stroke="midnightblue" points="104.22,-215.3 109.7,-224.37 111.07,-213.86 104.22,-215.3"/>
</g>
<!-- Node2&#45;&gt;Node3 -->
<g id="edge2" class="edge">
<title>Node2&#45;&gt;Node3</title>
<path fill="none" stroke="midnightblue" d="M30.26,-159.36C23.18,-145.83 16.71,-126.99 24.5,-112 33.39,-94.88 52.11,-82.91 67.02,-75.64"/>
<polygon fill="midnightblue" stroke="midnightblue" points="27.3,-161.23 35.34,-168.14 33.37,-157.73 27.3,-161.23"/>
</g>
<!-- Node2&#45;&gt;Node5 -->
<g id="edge4" class="edge">
<title>Node2&#45;&gt;Node5</title>
<path fill="none" stroke="midnightblue" d="M55.92,-160.43C64.16,-150.97 74.15,-139.48 80.88,-131.75"/>
<polygon fill="midnightblue" stroke="midnightblue" points="53.19,-158.24 49.26,-168.08 58.47,-162.84 53.19,-158.24"/>
</g>
<!-- Node4 -->
<g id="node4" class="node">
<title>Node4</title>
<g id="a_node4"><a xlink:href="uo__callbacks_8h.html" target="_top" xlink:title="pub/sub interface to publish asynchronously to MQTT servers, HTTP&#45;client web&#45;sockets,...">
<polygon fill="none" stroke="black" points="32,-0.5 32,-19.5 145,-19.5 145,-0.5 32,-0.5"/>
<text text-anchor="middle" x="88.5" y="-7.5" font-family="Helvetica,sans-Serif" font-size="10.00">uout/uo_callbacks.h</text>
</a>
</g>
</g>
<!-- Node3&#45;&gt;Node4 -->
<g id="edge3" class="edge">
<title>Node3&#45;&gt;Node4</title>
<path fill="none" stroke="midnightblue" d="M88.5,-45.8C88.5,-36.91 88.5,-26.78 88.5,-19.75"/>
<polygon fill="midnightblue" stroke="midnightblue" points="85,-46.08 88.5,-56.08 92,-46.08 85,-46.08"/>
</g>
<!-- Node5&#45;&gt;Node3 -->
<g id="edge5" class="edge">
<title>Node5&#45;&gt;Node3</title>
<path fill="none" stroke="midnightblue" d="M88.5,-101.8C88.5,-92.91 88.5,-82.78 88.5,-75.75"/>
<polygon fill="midnightblue" stroke="midnightblue" points="85,-102.08 88.5,-112.08 92,-102.08 85,-102.08"/>
</g>
</g>
</svg>
